<svg width="23" height="24" viewBox="0 0 23 24" fill="none" xmlns="http://www.w3.org/2000/svg">
<path d="M10.3147 0C4.62815 0 0 4.62815 0 10.3147C0 16.0012 4.62815 20.6293 10.3147 20.6293C16.0012 20.6293 20.6293 16.0012 20.6293 10.3147C20.6293 4.62465 16.0012 0 10.3147 0ZM10.3147 19.2286C5.39659 19.2286 1.39718 15.2292 1.39718 10.3112C1.39718 5.3931 5.39659 1.39368 10.3147 1.39368C15.2327 1.39368 19.2321 5.3931 19.2321 10.3112C19.2321 15.2292 15.2292 19.2286 10.3147 19.2286Z" fill="#B8930C"/>
<path d="M19.8678 19.0573C19.5989 18.7813 19.1553 18.7778 18.8793 19.0468C18.6034 19.3157 18.5999 19.7593 18.8689 20.0353L21.7086 22.9414C21.8449 23.0811 22.0265 23.151 22.2081 23.151C22.3828 23.151 22.5609 23.0846 22.6971 22.9519C22.9731 22.6829 22.9766 22.2393 22.7076 21.9634L19.8678 19.0573Z" fill="#B8930C"/>
</svg>
