<svg width="25" height="25" viewBox="0 0 25 25" fill="none" xmlns="http://www.w3.org/2000/svg">
<rect width="25" height="25" rx="12.5" fill="#B8930C" fill-opacity="0.44"/>
<path d="M16.4936 8.97029C16.4198 8.99963 16.3499 9.03803 16.2856 9.0846C15.8141 9.52105 15.3479 9.96443 14.8781 10.4043L10.1461 14.8433L6 13.3157L19 6C18.3223 9.81029 17.6515 13.5634 16.9755 17.3581C15.9823 17.0117 15.0133 16.6307 14.0132 16.2774L11.6819 19C11.6819 18.1029 11.6819 17.2681 11.6819 16.435C11.6819 16.0886 11.694 15.7422 11.6992 15.4097C11.8968 15.1412 12.0909 14.8728 12.2885 14.606C13.6752 12.7586 15.0578 10.9043 16.4364 9.04303C16.4537 9.01878 16.4676 8.98934 16.4849 8.96336L16.4971 8.95124C16.4988 8.93392 16.4971 8.9547 16.4936 8.97029Z" fill="white"/>
</svg>
