<svg width="51" height="51" viewBox="0 0 51 51" fill="none" xmlns="http://www.w3.org/2000/svg">
<path d="M33.8659 18.1958C33.6742 18.2721 33.4927 18.3718 33.3256 18.4928C32.1009 19.6265 30.8897 20.7783 29.6694 21.921L17.3772 33.4521L6.60693 29.4839L40.3767 10.48C38.6162 20.3779 36.8737 30.1273 35.1176 39.9847C32.5376 39.0849 30.0206 38.0951 27.4226 37.1773L21.3666 44.2498C21.3666 41.9193 21.3666 39.7507 21.3666 37.5867C21.3666 36.6869 21.3981 35.7871 21.4116 34.9232C21.9249 34.2259 22.4292 33.5285 22.9425 32.8357C26.5446 28.0367 30.1362 23.2198 33.7173 18.3848C33.7623 18.3218 33.7984 18.2453 33.8434 18.1778L33.8749 18.1463C33.8794 18.1013 33.8749 18.1553 33.8659 18.1958Z" fill="#B8930C"/>
</svg>
