<svg width="25" height="25" viewBox="0 0 25 25" fill="none" xmlns="http://www.w3.org/2000/svg">
<rect width="25" height="25" rx="12.5" fill="#B8930C" fill-opacity="0.44"/>
<path fill-rule="evenodd" clip-rule="evenodd" d="M18.3035 7.75428C18.7231 8.19049 18.86 9.18108 18.86 9.18108C18.86 9.18108 19 10.3446 19 11.5077V12.5985C19 13.762 18.86 14.9251 18.86 14.9251C18.86 14.9251 18.7231 15.9157 18.3035 16.3519C17.8238 16.8679 17.2919 16.9212 16.9913 16.9514C16.9582 16.9547 16.928 16.9577 16.9009 16.9611C14.9417 17.1066 12 17.1111 12 17.1111C12 17.1111 8.36 17.077 7.24 16.9665C7.18693 16.9563 7.12261 16.9484 7.04976 16.9394C6.69499 16.8957 6.13816 16.8271 5.69606 16.3519C5.2765 15.9157 5.14 14.9251 5.14 14.9251C5.14 14.9251 5 13.762 5 12.5985V11.5077C5 10.3446 5.14 9.18108 5.14 9.18108C5.14 9.18108 5.2765 8.19049 5.69606 7.75428C6.17681 7.23752 6.7092 7.18478 7.00986 7.155C7.04246 7.15177 7.07234 7.14881 7.09912 7.14555C9.05825 7 11.9969 7 11.9969 7H12.0031C12.0031 7 14.9417 7 16.9009 7.14555C16.9277 7.14881 16.9576 7.15177 16.9902 7.15501C17.2906 7.1848 17.8232 7.23761 18.3035 7.75428ZM10.5542 9.88092L10.5546 13.9201L14.3368 11.9075L10.5542 9.88092Z" fill="white"/>
</svg>
