<svg width="40" height="40" viewBox="0 0 40 40" fill="none" xmlns="http://www.w3.org/2000/svg">
<path d="M24.2755 21.8361C24.2755 21.422 23.9395 21.0861 23.5255 21.0861H19.4864C19.3517 20.8458 19.1564 20.6505 18.9161 20.5158V14.5608C18.9161 14.1467 18.5802 13.8108 18.1661 13.8108C17.7521 13.8108 17.4161 14.1467 17.4161 14.5608V20.5158C16.9513 20.7755 16.6368 21.2716 16.6368 21.8361C16.6368 22.6818 17.3224 23.3654 18.1661 23.3654C18.7306 23.3654 19.2267 23.0509 19.4864 22.5861H23.5255C23.9395 22.5861 24.2755 22.2501 24.2755 21.8361Z" fill="white"/>
<path d="M30.5995 0.000112056C27.3143 0.000112056 24.42 1.69541 22.74 4.25595C21.2752 3.87509 19.7458 3.67 18.1658 3.67C8.1503 3.67 0.00180054 11.8205 0.00180054 21.834C0.00180054 31.8494 8.1523 39.9979 18.1658 39.9979C28.1813 39.9979 36.3298 31.8474 36.3298 21.834C36.3298 20.2598 36.1247 18.7285 35.7439 17.2695C35.7595 17.2597 35.7731 17.2441 35.7888 17.2305C38.3239 15.5449 39.9997 12.666 39.9997 9.40047C39.9997 4.21499 35.7851 0.000112056 30.5995 0.000112056ZM18.164 38.5C8.9745 38.5 1.5 31.0255 1.5 21.8361C1.5 12.6446 8.9745 5.1701 18.164 5.1701C19.4843 5.1701 20.7636 5.33025 21.9941 5.61932C21.7187 6.25016 21.5097 6.90836 21.375 7.59391C20.3398 7.36344 19.2695 7.23454 18.164 7.23454C10.113 7.23454 3.5645 13.7855 3.5645 21.834C3.5645 29.885 10.1155 36.4335 18.164 36.4335C26.215 36.4335 32.7635 29.8825 32.7635 21.834C32.7635 20.7285 32.6326 19.6582 32.4041 18.6231C33.0897 18.4883 33.7498 18.2774 34.3787 18.0039C34.6678 19.2344 34.8279 20.5136 34.8279 21.834C34.8279 31.0235 27.3474 38.4979 18.1639 38.4979L18.164 38.5ZM30.5995 18.8011C30.6991 18.8011 30.7987 18.7913 30.9042 18.7854C31.1347 19.7659 31.2636 20.7854 31.2636 21.8362C31.2636 29.0607 25.3886 34.9357 18.1641 34.9357C10.9396 34.9357 5.06457 29.0607 5.06457 21.8362C5.06457 14.6117 10.9396 8.73676 18.1641 8.73676C19.2149 8.73676 20.2344 8.86762 21.2149 9.102C21.209 9.20161 21.1992 9.30122 21.1992 9.40277C21.1992 12.6684 22.875 15.5473 25.4102 17.2328C25.4649 17.2777 25.5196 17.3128 25.586 17.3421C27.0411 18.262 28.7559 18.8031 30.6015 18.8031L30.5995 18.8011ZM26.6249 16.2151V13.1761H34.5739V16.2151C33.404 16.9007 32.0485 17.3011 30.5993 17.3011C29.1501 17.3011 27.7889 16.9007 26.6249 16.2151ZM35.5899 11.6057C35.5899 11.6448 35.5606 11.676 35.5196 11.676H25.6796C25.6405 11.676 25.6054 11.6467 25.6054 11.6057V11.051C25.6054 11.012 25.6405 10.9807 25.6796 10.9807H35.5196C35.5586 10.9807 35.5899 11.01 35.5899 11.051V11.6057ZM26.6544 8.48074C26.9591 6.96514 29.3751 5.49635 30.5997 4.8948C31.8243 5.4944 34.2344 6.96509 34.545 8.48074C34.6095 8.82058 34.5645 9.15064 34.4005 9.48074H26.801C26.6369 9.15066 26.5861 8.82059 26.6564 8.48074H26.6544ZM36.0744 15.0862V13.0706C36.6701 12.846 37.09 12.2757 37.09 11.6058V11.0511C37.09 10.3401 36.6154 9.74638 35.965 9.55108C36.1056 9.02569 36.09 8.55694 36.0158 8.18584C35.465 5.4749 31.3712 3.58625 30.9063 3.38115C30.711 3.29521 30.4922 3.29521 30.2969 3.38115C29.832 3.58623 25.7363 5.47685 25.1874 8.18584C25.1132 8.55498 25.0917 9.02569 25.2382 9.55108C24.5878 9.7464 24.1073 10.3401 24.1073 11.0511V11.6058C24.1073 12.2757 24.5331 12.846 25.1269 13.0706V15.0862C23.6327 13.6468 22.7011 11.6311 22.7011 9.40074C22.7011 5.0453 26.246 1.50026 30.6016 1.50026C34.9572 1.50026 38.5021 5.04515 38.5021 9.40074C38.5021 11.6312 37.5665 13.6449 36.0763 15.0862H36.0744Z" fill="white"/>
<path d="M9.11901 15.625C8.70886 15.3907 8.18346 15.5293 7.94321 15.9395C7.70884 16.3496 7.85337 16.875 8.26352 17.1094C8.39438 17.1836 8.54282 17.2188 8.68344 17.2188C8.98422 17.2188 9.26939 17.0684 9.42759 16.793C9.54283 16.5938 9.57212 16.3633 9.51353 16.1426C9.45299 15.9219 9.31431 15.7383 9.119 15.623L9.11901 15.625Z" fill="white"/>
<path d="M7.22451 20.9806C6.7499 20.9806 6.36511 21.3654 6.36511 21.836C6.36511 22.3067 6.74988 22.6954 7.22451 22.6954C7.69915 22.6954 8.07996 22.3107 8.07996 21.836C8.07996 21.3614 7.6952 20.9806 7.22451 20.9806Z" fill="white"/>
<path d="M8.26 26.5646C8.06469 26.6798 7.92016 26.8653 7.86547 27.0841C7.80493 27.3048 7.83618 27.5333 7.95141 27.7345C8.10571 28.0099 8.39672 28.1603 8.69166 28.1603C8.83619 28.1603 8.98658 28.1251 9.12135 28.0509C9.52565 27.8107 9.66625 27.2912 9.4319 26.8751C9.19752 26.4708 8.67215 26.3302 8.262 26.5646L8.26 26.5646Z" fill="white"/>
<path d="M13.119 30.5705C12.7088 30.3361 12.1893 30.4748 11.9491 30.881C11.7147 31.2912 11.8534 31.8166 12.2636 32.0509C12.3983 32.131 12.5429 32.1662 12.6893 32.1662C12.7636 32.1662 12.8397 32.1564 12.9139 32.1369C13.1386 32.0822 13.3182 31.9377 13.4335 31.7423C13.6679 31.3322 13.5292 30.8068 13.119 30.5724L13.119 30.5705Z" fill="white"/>
<path d="M18.164 31.92C17.6894 31.92 17.3046 32.3048 17.3046 32.7755C17.3046 33.2462 17.6894 33.6349 18.164 33.6349C18.6386 33.6349 19.0194 33.2501 19.0194 32.7755C19.0194 32.3009 18.6347 31.92 18.164 31.92Z" fill="white"/>
<path d="M23.205 30.5706C23.0058 30.6858 22.8651 30.8713 22.8046 31.0901C22.7499 31.3147 22.7792 31.5452 22.8944 31.7405C23.0097 31.9397 23.1894 32.0804 23.41 32.1409C23.4843 32.1565 23.5604 32.1663 23.6347 32.1663C23.785 32.1663 23.9296 32.1311 24.0604 32.0569C24.4706 31.8167 24.6112 31.2972 24.3749 30.887C24.1405 30.4769 23.6151 30.3362 23.205 30.5726V30.5706Z" fill="white"/>
<path d="M27.211 28.045H27.2169C27.3477 28.1251 27.4962 28.1602 27.6368 28.1602C27.9376 28.1602 28.2266 28.0098 28.3809 27.7344C28.4962 27.5352 28.5255 27.3048 28.4669 27.084C28.4063 26.8594 28.2677 26.6739 28.0724 26.5645C27.6681 26.3301 27.1368 26.4649 26.8966 26.8789C26.6622 27.2832 26.8008 27.8086 27.211 28.043L27.211 28.045Z" fill="white"/>
<path d="M29.1055 22.6956C29.5762 22.6956 29.961 22.3108 29.961 21.8362C29.961 21.3615 29.5762 20.9807 29.1055 20.9807C28.6348 20.9807 28.2501 21.3655 28.2501 21.8362C28.2501 22.3068 28.6309 22.6956 29.1055 22.6956Z" fill="white"/>
<path d="M18.164 11.7501C18.6347 11.7501 19.0194 11.3692 19.0194 10.8946C19.0194 10.42 18.6347 10.0392 18.164 10.0392C17.6933 10.0392 17.3046 10.4239 17.3046 10.8946C17.3046 11.3653 17.6894 11.7501 18.164 11.7501Z" fill="white"/>
<path d="M12.914 11.5351C12.6894 11.4746 12.4589 11.5058 12.2636 11.6211C12.0683 11.7363 11.9238 11.9218 11.8632 12.1406C11.8027 12.3613 11.8339 12.5898 11.9492 12.791C12.1093 13.0664 12.3984 13.2207 12.6933 13.2207C12.8378 13.2207 12.9824 13.1816 13.1191 13.1055C13.3183 12.9902 13.4589 12.8047 13.5195 12.5859C13.58 12.3613 13.5488 12.1308 13.4335 11.9355C13.3183 11.7363 13.1328 11.5957 12.914 11.5351Z" fill="white"/>
</svg>
