<svg width="49" height="47" viewBox="0 0 49 47" fill="none" xmlns="http://www.w3.org/2000/svg">
<g clip-path="url(#clip0_720_2787)">
<path fill-rule="evenodd" clip-rule="evenodd" d="M24.4868 26.8126C23.7977 26.8126 23.1948 26.4683 22.8503 25.8659L19.9792 20.9339C19.6633 20.3314 19.6633 19.6143 19.9792 19.0405C20.3237 18.4381 20.9266 18.0939 21.6444 18.0652H22.1899V12.9897C22.1899 11.7275 23.2235 10.6948 24.4868 10.6948C25.7788 10.6948 26.8124 11.7275 26.8124 12.9897V18.0652H27.3579C28.0469 18.0939 28.6786 18.4381 28.9944 19.0405C29.3389 19.643 29.3389 20.3314 28.9944 20.9339L26.152 25.8659C25.8075 26.4683 25.1758 26.8126 24.4868 26.8126ZM39.958 29.1075H9.04197C8.66873 29.1075 8.35293 28.8493 8.2955 28.5051C8.09453 27.5871 7.97968 26.6691 7.92226 25.7225H3.32851C2.89785 25.7225 2.55333 25.3782 2.55333 24.9766C2.55333 24.5463 2.89786 24.2021 3.32851 24.2021H7.92226C8.03711 21.7351 8.69744 19.4114 9.75976 17.3479L3.1869 13.5613C2.84237 13.3605 2.69882 12.8729 2.9285 12.4999C3.12948 12.1557 3.58888 12.0122 3.96211 12.2417L10.535 16.0284C11.827 14.0203 13.5496 12.2991 15.5575 11.0101L13.2606 7.02271C13.0309 6.67848 13.1745 6.19081 13.519 5.98999C13.8922 5.78918 14.3516 5.90393 14.5813 6.27685L16.8782 10.2356C18.9454 9.17416 21.2709 8.5144 23.7382 8.39964V0.828232C23.7382 0.397932 24.0827 0.0537109 24.4847 0.0537109C24.9153 0.0537109 25.2598 0.397947 25.2598 0.828232V8.39964C27.729 8.51439 30.0546 9.17416 32.1198 10.2356L34.4167 6.27685C34.6177 5.90393 35.1057 5.78918 35.4503 5.98999C35.8236 6.19079 35.9384 6.67844 35.7374 7.02271L33.4405 11.0101C35.4503 12.301 37.173 14.0222 38.4631 16.0284L45.0359 12.2417C45.3804 12.0122 45.8685 12.1557 46.0695 12.4999C46.2705 12.8728 46.1556 13.3605 45.7824 13.5613L39.2095 17.3479C40.3006 19.4134 40.9322 21.737 41.047 24.2021H45.6695C46.0715 24.2021 46.416 24.5463 46.416 24.9766C46.416 25.3782 46.0714 25.7225 45.6695 25.7225H41.047C41.0183 26.6691 40.9035 27.5871 40.7025 28.5051C40.6164 28.8493 40.3006 29.1075 39.9561 29.1075H39.958ZM9.67358 27.5871H39.3264C39.47 26.7265 39.5561 25.8372 39.5561 24.9766C39.5561 16.688 32.8108 9.94887 24.5156 9.91999H24.4868C16.1911 9.94868 9.4463 16.688 9.4463 24.9766C9.4463 25.8372 9.53243 26.7265 9.67598 27.5871H9.67358ZM48.2248 34.5847H0.77518C0.344514 34.5847 0 34.2405 0 33.8389C0 33.4086 0.344529 33.0644 0.77518 33.0644H48.2248C48.6555 33.0644 49 33.4086 49 33.8389C49 34.2405 48.6555 34.5847 48.2248 34.5847ZM42.3698 40.7505H6.63215C6.20148 40.7505 5.85697 40.4063 5.85697 40.0047C5.85697 39.5744 6.2015 39.2302 6.63215 39.2302H42.3698C42.8005 39.2302 43.145 39.5744 43.145 40.0047C43.145 40.4063 42.8005 40.7505 42.3698 40.7505ZM34.62 46.9163H14.3541C13.9234 46.9163 13.6076 46.5721 13.6076 46.1705C13.6076 45.7402 13.9234 45.396 14.3541 45.396H34.62C35.0506 45.396 35.3951 45.7402 35.3951 46.1705C35.3951 46.5721 35.0506 46.9163 34.62 46.9163ZM21.6448 19.6123C21.4725 19.6123 21.3577 19.6983 21.329 19.7844C21.3002 19.8418 21.2141 19.9852 21.329 20.1573L24.1713 25.0894C24.2575 25.2615 24.4297 25.2902 24.4872 25.2902C24.5733 25.2902 24.7169 25.2615 24.8317 25.0894L27.6741 20.1573C27.7602 20.0139 27.7028 19.8704 27.6741 19.8131C27.6454 19.7557 27.5305 19.6123 27.3296 19.6123H26.0376C25.6356 19.6123 25.2911 19.268 25.2911 18.8377V12.9877C25.2911 12.5574 24.9179 12.2132 24.4872 12.2132C24.0566 12.2132 23.712 12.5574 23.712 12.9877V18.8377C23.712 19.268 23.3675 19.6123 22.9369 19.6123H21.6448Z" fill="white"/>
</g>
<defs>
<clipPath id="clip0_720_2787">
<rect width="49" height="47" fill="white"/>
</clipPath>
</defs>
</svg>
