<svg width="37" height="38" viewBox="0 0 37 38" fill="none" xmlns="http://www.w3.org/2000/svg">
<path fill-rule="evenodd" clip-rule="evenodd" d="M17.6657 10.3045V12.1413C15.804 12.9228 8.35711 16.1271 5.41974 18.5514C1.94453 21.4283 0 25.3385 0 29.4082V38.0183C0 38.3981 0.317181 38.7063 0.689525 38.7063H36.0071C36.3933 38.7063 36.6967 38.3981 36.6967 38.0183V29.4082C36.6967 27.3238 36.1863 25.2834 35.221 23.3999C36.3242 22.108 37 20.4308 37 18.5995C37 14.516 33.6765 11.2016 29.5807 11.2016C27.1536 11.2016 24.9884 12.3752 23.6369 14.1858C21.6097 13.2337 19.8308 12.4715 19.0448 12.1413V10.3403C21.0995 10.1298 22.8233 8.74429 23.4991 6.86762C23.6094 6.59658 23.5266 6.29251 23.306 6.10677C23.0853 5.91966 22.7682 5.89076 22.52 6.03248C21.9822 6.33516 21.3615 6.50715 20.7133 6.50715C18.6724 6.50715 17.0314 4.86025 17.0314 2.83224C17.0314 2.17596 17.1968 1.55957 17.5002 1.02712C17.6381 0.775336 17.6105 0.463017 17.4312 0.24288C17.2381 0.0227436 16.9348 -0.0570558 16.659 0.0420057C14.618 0.786343 13.1562 2.74694 13.1562 5.04461C13.1562 7.70139 15.1145 9.90688 17.6657 10.3045ZM35.3176 34.6668H1.37905V37.3304H35.3176V34.6668ZM22.9062 15.3676C20.8238 14.3853 19.0034 13.6176 18.3552 13.3451C16.8521 13.967 9.23973 17.1824 6.30235 19.6094C3.15812 22.2098 1.37905 25.7306 1.37905 29.4082V33.2909H35.3176V29.4082C35.3176 27.6788 34.9176 25.9837 34.1867 24.4029C32.918 25.4018 31.3183 25.9975 29.5807 25.9975C25.4849 25.9975 22.1752 22.6831 22.1752 18.5995C22.1752 17.4411 22.4373 16.3445 22.9062 15.3676ZM29.5807 12.5774C32.918 12.5774 35.621 15.2755 35.621 18.5995C35.621 21.9236 32.918 24.6216 29.5807 24.6216C26.2572 24.6216 23.5543 21.9236 23.5543 18.5995C23.5543 15.2755 26.2572 12.5774 29.5807 12.5774ZM28.5602 14.9439V18.8114C28.5602 18.9944 28.6292 19.1691 28.7533 19.2985L31.0562 21.5906C31.3182 21.8589 31.7596 21.8589 32.0217 21.5906C32.2975 21.3223 32.2975 20.8862 32.0217 20.6179L29.9393 18.5266V14.9439C29.9393 14.5642 29.6221 14.256 29.2498 14.256C28.8636 14.256 28.5602 14.5642 28.5602 14.9439ZM15.68 2.26951C15.6524 2.45525 15.6523 2.64237 15.6523 2.83224C15.6523 5.61972 17.9139 7.883 20.7133 7.883C20.8926 7.883 21.0857 7.87199 21.265 7.85136C20.5617 8.55717 19.5688 8.99194 18.4931 8.99194C16.3004 8.99194 14.5352 7.22397 14.5352 5.04461C14.5352 3.96319 14.9766 2.98221 15.68 2.26814V2.26951Z" fill="white"/>
</svg>
