<svg width="18" height="18" viewBox="0 0 18 18" fill="none" xmlns="http://www.w3.org/2000/svg">
<path d="M9 0C6.6133 0 4.32411 0.94822 2.63561 2.63561C0.948117 4.32391 0 6.6133 0 9C0 11.3867 0.94822 13.6759 2.63561 15.3644C4.32391 17.0519 6.6133 18 9 18C11.3867 18 13.6759 17.0518 15.3644 15.3644C17.0519 13.6761 18 11.3867 18 9C17.9976 6.61413 17.0486 4.32638 15.3611 2.6389C13.6736 0.951428 11.3859 0.00246857 9 0ZM12.0279 12.0279C11.7748 12.2762 11.3682 12.2762 11.1151 12.0279L8.92296 9.82923C8.55815 9.47004 8.35484 8.97826 8.35725 8.46638V3.85714C8.35725 3.50196 8.64492 3.21429 9.0001 3.21429C9.35529 3.21429 9.64296 3.50196 9.64296 3.85714V8.46638C9.64135 8.63754 9.70805 8.80227 9.82939 8.92282L12.0281 11.1149C12.2788 11.3672 12.2788 11.7754 12.0281 12.0278L12.0279 12.0279Z" fill="#B8930C"/>
</svg>
