<svg width="27" height="27" viewBox="0 0 27 27" fill="none" xmlns="http://www.w3.org/2000/svg">
<path fill-rule="evenodd" clip-rule="evenodd" d="M0.494253 0.494253C1.15327 -0.164751 2.22173 -0.164751 2.88075 0.494253L13.5 11.1136L24.1193 0.494253C24.7783 -0.164751 25.8468 -0.164751 26.5058 0.494253C27.1647 1.15327 27.1647 2.22173 26.5058 2.88075L15.8865 13.5L26.5058 24.1193C27.1647 24.7783 27.1647 25.8468 26.5058 26.5058C25.8468 27.1647 24.7783 27.1647 24.1193 26.5058L13.5 15.8865L2.88075 26.5058C2.22173 27.1647 1.15327 27.1647 0.494253 26.5058C-0.164751 25.8468 -0.164751 24.7783 0.494253 24.1193L11.1136 13.5L0.494253 2.88075C-0.164751 2.22173 -0.164751 1.15327 0.494253 0.494253Z" fill="#B8930C"/>
</svg>
