<svg width="43" height="43" viewBox="0 0 43 43" fill="none" xmlns="http://www.w3.org/2000/svg">
<path d="M22.1132 36.8136H7.00059C6.03847 36.8136 5.25903 36.0337 5.25903 35.0719V7.00082C5.25903 6.03883 6.0386 5.25928 7.00059 5.25928H35.0719C36.0337 5.25928 36.8133 6.03883 36.8133 7.00082V35.0719C36.8133 36.0338 36.0335 36.8136 35.0719 36.8136H27.0311V24.594H31.1326L31.7467 19.8318H27.0311V16.7915C27.0311 15.4127 27.4139 14.4731 29.391 14.4731L31.9128 14.472V10.2127C31.4766 10.1547 29.9797 10.025 28.2382 10.025C24.6024 10.025 22.1132 12.2443 22.1132 16.3199V19.8318H18.0011V24.594H22.1132V36.8136Z" fill="#B8930C"/>
</svg>
