<svg width="25" height="25" viewBox="0 0 25 25" fill="none" xmlns="http://www.w3.org/2000/svg">
<rect width="25" height="25" rx="12.5" fill="#B8930C" fill-opacity="0.44"/>
<path d="M12.4096 18H6.66231C6.29642 18 6 17.7034 6 17.3377V6.6623C6 6.29646 6.29646 6 6.66231 6H17.3377C17.7035 6 18 6.29646 18 6.6623V17.3377C18 17.7034 17.7034 18 17.3377 18H14.2798V13.3529H15.8396L16.0732 11.5419H14.2798V10.3857C14.2798 9.86132 14.4254 9.504 15.1773 9.504L16.1363 9.50358V7.88377C15.9705 7.8617 15.4012 7.81239 14.7389 7.81239C13.3562 7.81239 12.4096 8.65638 12.4096 10.2063V11.5419H10.8458V13.3529H12.4096V18Z" fill="white"/>
</svg>
