<svg width="30" height="30" viewBox="0 0 30 30" fill="none" xmlns="http://www.w3.org/2000/svg">
<path d="M15.3103 26.046H4.92527C4.26413 26.046 3.72852 25.51 3.72852 24.8491V5.5593C3.72852 4.89824 4.26421 4.36255 4.92527 4.36255H24.2153C24.8762 4.36255 25.4119 4.89824 25.4119 5.5593V24.8491C25.4119 25.5101 24.8761 26.046 24.2153 26.046H18.6898V17.649H21.5082L21.9303 14.3765H18.6898V12.2872C18.6898 11.3398 18.9529 10.6941 20.3115 10.6941L22.0444 10.6934V7.76643C21.7447 7.72655 20.716 7.63745 19.5193 7.63745C17.0208 7.63745 15.3103 9.1625 15.3103 11.9631V14.3765H12.4846V17.649H15.3103V26.046Z" fill="#B8930C"/>
</svg>
