<svg width="29" height="29" viewBox="0 0 29 29" fill="none" xmlns="http://www.w3.org/2000/svg">
<path fill-rule="evenodd" clip-rule="evenodd" d="M16.6771 28.9998V20.0584H12.3246V28.9998H16.6771ZM28.5497 11.4073L14.5126 0L0.414976 11.4582C0.175903 11.6523 0.0380128 11.9282 0.00640768 12.2155C-0.0239508 12.5041 0.0532098 12.8054 0.24548 13.0455C0.43775 13.2869 0.710976 13.4261 0.995585 13.458C1.28146 13.4886 1.57999 13.4107 1.8178 13.2166L14.0952 3.23957C14.3293 3.04292 14.6759 3.03271 14.9225 3.23191L27.1443 13.1655C27.167 13.1821 27.1885 13.1987 27.21 13.2178C27.4441 13.3953 27.7287 13.4656 28.0044 13.4362C28.2776 13.4068 28.5407 13.2766 28.7317 13.0531C28.7457 13.0327 28.7608 13.0135 28.7773 12.9956C28.9531 12.7594 29.0227 12.4721 28.9936 12.1937C28.9645 11.9179 28.8355 11.6523 28.6141 11.4595C28.5926 11.4429 28.5711 11.4263 28.5509 11.4071L28.5497 11.4073ZM24.6412 12.8234V28.3398C24.6412 28.5211 24.5678 28.6859 24.4489 28.8059C24.33 28.9259 24.1668 29 23.9872 29H17.9851V19.3986C17.9851 19.0333 17.6917 18.7384 17.3312 18.7384H11.6694C11.3077 18.7384 11.0155 19.0346 11.0155 19.3986V29H5.01341C4.83379 29 4.67062 28.9259 4.55171 28.8059C4.4328 28.6859 4.35944 28.5211 4.35944 28.3398V12.8453L14.5142 4.59232L24.6424 12.825L24.6412 12.8234Z" fill="#979797"/>
</svg>
