<svg width="25" height="25" viewBox="0 0 25 25" fill="none" xmlns="http://www.w3.org/2000/svg">
<rect width="25" height="25" rx="12.5" fill="#B8930C" fill-opacity="0.44"/>
<path d="M15.2827 7H9.71734C8.99687 7.00068 8.3061 7.28719 7.79665 7.79665C7.28719 8.3061 7.00068 8.99687 7 9.71734V15.2827C7.00068 16.0031 7.28719 16.6939 7.79665 17.2034C8.3061 17.7128 8.99687 17.9993 9.71734 18H15.2827C16.003 17.999 16.6937 17.7124 17.2031 17.2031C17.7124 16.6937 17.999 16.003 18 15.2827V9.71734C17.999 8.99695 17.7124 8.30634 17.2031 7.79695C16.6937 7.28755 16.003 7.00095 15.2827 7ZM15.2259 10.4719C15.0878 10.4717 14.9527 10.4306 14.8379 10.3537C14.7231 10.2767 14.6337 10.1675 14.581 10.0398C14.5283 9.91205 14.5146 9.77155 14.5417 9.63606C14.5688 9.50056 14.6355 9.37615 14.7334 9.27856C14.8312 9.18097 14.9558 9.11458 15.0913 9.08779C15.2269 9.061 15.3674 9.07501 15.495 9.12804C15.6226 9.18108 15.7316 9.27077 15.8082 9.38576C15.8848 9.50075 15.9256 9.63588 15.9255 9.77406C15.9254 9.86581 15.9072 9.95664 15.872 10.0414C15.8367 10.1261 15.7852 10.203 15.7202 10.2678C15.6553 10.3326 15.5782 10.384 15.4934 10.419C15.4086 10.454 15.3177 10.472 15.2259 10.4719ZM12.5 9.88062C13.0181 9.88062 13.5245 10.0342 13.9552 10.3221C14.386 10.6099 14.7217 11.019 14.92 11.4976C15.1182 11.9762 15.1701 12.5029 15.069 13.011C14.968 13.5191 14.7185 13.9859 14.3522 14.3522C13.9859 14.7185 13.5191 14.968 13.011 15.069C12.5029 15.1701 11.9762 15.1182 11.4976 14.92C11.019 14.7217 10.6099 14.386 10.3221 13.9552C10.0342 13.5245 9.88062 13.0181 9.88062 12.5C9.88162 11.8056 10.1579 11.1399 10.6489 10.6489C11.1399 10.1579 11.8056 9.88162 12.5 9.88062Z" fill="white"/>
<path d="M12.5 14C12.7967 14 13.0867 13.912 13.3334 13.7472C13.58 13.5824 13.7723 13.3481 13.8858 13.074C13.9993 12.7999 14.0291 12.4983 13.9712 12.2074C13.9133 11.9164 13.7704 11.6491 13.5607 11.4393C13.3509 11.2296 13.0836 11.0867 12.7926 11.0288C12.5017 10.9709 12.2001 11.0007 11.926 11.1142C11.6519 11.2277 11.4176 11.42 11.2528 11.6666C11.088 11.9133 11 12.2033 11 12.5C11.0004 12.8977 11.1586 13.279 11.4398 13.5602C11.721 13.8414 12.1023 13.9996 12.5 14Z" fill="white"/>
</svg>
