<svg width="35" height="35" viewBox="0 0 35 35" fill="none" xmlns="http://www.w3.org/2000/svg">
<path d="M22.8806 6.00281H11.546C10.0786 6.0042 8.67178 6.58861 7.6342 7.62777C6.59663 8.66693 6.01311 10.0759 6.01172 11.5455V22.8974C6.01311 24.367 6.59663 25.776 7.6342 26.8151C8.67178 27.8543 10.0786 28.4387 11.546 28.4401H22.8806C24.3477 28.4382 25.7543 27.8536 26.7917 26.8145C27.8292 25.7755 28.4129 24.3668 28.4148 22.8974V11.5455C28.4129 10.0761 27.8292 8.66742 26.7917 7.62838C25.7543 6.58934 24.3477 6.00476 22.8806 6.00281ZM22.765 13.0846C22.4836 13.0842 22.2086 13.0003 21.9748 12.8434C21.741 12.6865 21.5589 12.4638 21.4515 12.2032C21.3441 11.9427 21.3163 11.6561 21.3715 11.3797C21.4268 11.1033 21.5626 10.8496 21.7619 10.6505C21.9611 10.4515 22.2148 10.316 22.4909 10.2614C22.767 10.2067 23.0531 10.2353 23.3129 10.3435C23.5728 10.4517 23.7948 10.6346 23.9509 10.8692C24.107 11.1037 24.1901 11.3794 24.1897 11.6612C24.1895 11.8484 24.1525 12.0336 24.0808 12.2065C24.009 12.3793 23.904 12.5362 23.7717 12.6684C23.6394 12.8006 23.4824 12.9054 23.3097 12.9768C23.137 13.0482 22.9519 13.0848 22.765 13.0846ZM17.2133 11.8786C18.2684 11.8786 19.2998 12.1919 20.1771 12.779C21.0544 13.3661 21.7382 14.2005 22.1419 15.1768C22.5457 16.1531 22.6513 17.2274 22.4455 18.2638C22.2397 19.3002 21.7316 20.2522 20.9855 20.9994C20.2394 21.7467 19.2889 22.2555 18.254 22.4617C17.2192 22.6678 16.1465 22.562 15.1718 22.1576C14.197 21.7532 13.3638 21.0684 12.7776 20.1898C12.1914 19.3112 11.8785 18.2782 11.8785 17.2215C11.8806 15.8051 12.4433 14.4473 13.4433 13.4457C14.4433 12.4442 15.799 11.8806 17.2133 11.8786Z" fill="#B8930C"/>
<path d="M17.2138 20.4362C17.8487 20.4362 18.4693 20.2476 18.9972 19.8944C19.5251 19.5411 19.9365 19.039 20.1795 18.4516C20.4224 17.8641 20.486 17.2177 20.3621 16.5941C20.2383 15.9705 19.9325 15.3977 19.4836 14.9481C19.0347 14.4985 18.4627 14.1923 17.8401 14.0682C17.2174 13.9442 16.572 14.0079 15.9855 14.2512C15.3989 14.4945 14.8976 14.9066 14.5449 15.4352C14.1922 15.9639 14.0039 16.5855 14.0039 17.2213C14.0048 18.0737 14.3433 18.8908 14.9451 19.4935C15.5469 20.0962 16.3628 20.4352 17.2138 20.4362Z" fill="#B8930C"/>
</svg>
