<svg width="51" height="51" viewBox="0 0 51 51" fill="none" xmlns="http://www.w3.org/2000/svg">
<path d="M33.6441 8.53955H16.9514C14.7904 8.5416 12.7185 9.40227 11.1905 10.9327C9.66243 12.463 8.80307 14.5381 8.80103 16.7024V33.4205C8.80307 35.5848 9.66243 37.6599 11.1905 39.1903C12.7185 40.7207 14.7904 41.5813 16.9514 41.5834H33.6441C35.8048 41.5805 37.8762 40.7196 39.4041 39.1894C40.932 37.6591 41.7916 35.5846 41.7945 33.4205V16.7024C41.7916 14.5384 40.932 12.4638 39.4041 10.9336C37.8762 9.40335 35.8048 8.54242 33.6441 8.53955ZM33.4739 18.969C33.0595 18.9685 32.6545 18.8449 32.3101 18.6139C31.9658 18.3828 31.6976 18.0547 31.5395 17.671C31.3813 17.2873 31.3403 16.8652 31.4217 16.4582C31.5031 16.0512 31.7031 15.6775 31.9965 15.3843C32.29 15.0911 32.6636 14.8917 33.0702 14.8112C33.4768 14.7308 33.8981 14.7728 34.2809 14.9322C34.6636 15.0915 34.9905 15.3609 35.2204 15.7063C35.4502 16.0518 35.5726 16.4577 35.5721 16.8728C35.5718 17.1484 35.5172 17.4213 35.4116 17.6758C35.306 17.9303 35.1513 18.1615 34.9565 18.3561C34.7617 18.5508 34.5305 18.7051 34.2761 18.8102C34.0217 18.9154 33.7491 18.9693 33.4739 18.969ZM25.2978 17.1929C26.8516 17.1929 28.3706 17.6544 29.6626 18.519C30.9546 19.3836 31.9616 20.6125 32.5563 22.0503C33.1509 23.4881 33.3065 25.0702 33.0034 26.5965C32.7002 28.1229 31.9519 29.5249 30.8532 30.6254C29.7544 31.7258 28.3545 32.4752 26.8305 32.7788C25.3065 33.0824 23.7268 32.9266 22.2912 32.3311C20.8556 31.7355 19.6285 30.727 18.7653 29.433C17.902 28.139 17.4412 26.6177 17.4412 25.0615C17.4442 22.9755 18.2729 20.9759 19.7456 19.5009C21.2184 18.0259 23.215 17.1959 25.2978 17.1929Z" fill="#B8930C"/>
<path d="M25.2977 29.7958C26.2326 29.7958 27.1466 29.5181 27.924 28.9979C28.7014 28.4776 29.3073 27.7382 29.6651 26.8731C30.023 26.0079 30.1166 25.056 29.9342 24.1376C29.7518 23.2191 29.3015 22.3755 28.6404 21.7134C27.9793 21.0512 27.1369 20.6003 26.2199 20.4176C25.3029 20.235 24.3524 20.3287 23.4886 20.6871C22.6248 21.0454 21.8865 21.6522 21.367 22.4308C20.8476 23.2094 20.5703 24.1248 20.5703 25.0612C20.5717 26.3165 21.0702 27.5199 21.9564 28.4076C22.8427 29.2952 24.0443 29.7944 25.2977 29.7958Z" fill="#B8930C"/>
</svg>
