<svg width="27" height="19" viewBox="0 0 27 19" fill="none" xmlns="http://www.w3.org/2000/svg">
<path d="M12.8853 9.67979C13.2428 9.97104 13.7603 9.97104 14.1165 9.67979L25.334 0.523738C24.8002 0.193758 24.174 0 23.5015 0H3.50046C2.82795 0 2.20172 0.193748 1.66797 0.523738L12.8853 9.67979Z" fill="#B8930C"/>
<path d="M15.38 11.2299C14.835 11.6749 14.1675 11.8974 13.5 11.8974C12.8325 11.8974 12.165 11.6749 11.62 11.2299L0.333756 2.01758C0.121259 2.46884 0 2.97008 0 3.50006V15.4999C0 17.4299 1.56997 19 3.50012 19H23.4999C25.4298 19 27 17.4301 27 15.4999V3.50006C27 2.97008 26.8775 2.46756 26.6662 2.01758L15.3813 11.2299H15.38Z" fill="#B8930C"/>
</svg>
