<svg width="36" height="37" viewBox="0 0 36 37" fill="none" xmlns="http://www.w3.org/2000/svg">
<path d="M18.7009 36.4C26.0009 36.4 32.8009 32.1 35.8009 25.4L36.4009 24.2L35.2009 24.8C32.8009 25.9 30.3009 26.4 27.8009 26.4C18.0009 26.4 10.0009 18.4 10.0009 8.6C10.0009 6 10.5009 3.5 11.6009 1.2L12.2009 0L11.0009 0.6C4.30088 3.7 0.00088368 10.4 0.00088368 17.7C-0.0991163 27.9 8.30088 36.4 18.7009 36.4ZM10.1009 2C9.30088 4.1 8.90089 6.3 8.90089 8.6C8.90089 19 17.4009 27.4 27.7009 27.4C30.0009 27.4 32.2009 27 34.3009 26.2C31.2009 31.8 25.2009 35.4 18.7009 35.4C8.90088 35.4 0.900885 27.4 0.900885 17.6C0.900885 11.1 4.50088 5.1 10.1009 2Z" fill="white"/>
<path d="M9.1009 27.9C9.2009 28 9.3009 28 9.4009 28C9.5009 28 9.7009 27.9 9.8009 27.8C10.0009 27.6 9.9009 27.3 9.7009 27.1C6.5009 24.5 4.6009 20.8 4.3009 16.8C4.3009 16.5 4.0009 16.3 3.8009 16.3C3.5009 16.3 3.3009 16.6 3.3009 16.8C3.6009 21.2 5.7009 25.1 9.1009 27.9Z" fill="white"/>
</svg>
