<svg width="70" height="65" viewBox="0 0 70 65" fill="none" xmlns="http://www.w3.org/2000/svg">
<g clip-path="url(#clip0_106_3310)">
<path d="M69.2997 38.2821C68.9786 37.9762 67.6825 38.1089 67.2438 38.106C67.2123 34.3321 67.2094 30.5609 67.2352 26.7872C68.3965 26.3486 68.2502 24.8367 67.1062 24.4847C68.4194 20.9387 65.5263 17.8485 63.0489 15.7045C63.1063 15.0698 63.2238 14.3052 62.7794 13.7829C62.6188 13.5925 62.4066 13.4396 62.2116 13.2837C63.1808 12.75 63.3471 11.6074 62.2919 11.065L62.2833 9.28469C62.2546 8.83459 62.3894 8.30947 62.1715 7.90263C62.031 7.7526 61.75 7.76991 61.6238 7.93437C61.4977 8.09883 61.5665 10.6667 61.5636 11.0707C60.5371 11.5093 60.5056 12.8596 61.5808 13.2548C61.1622 13.552 60.8124 13.8521 60.7177 14.3888C60.6489 14.7899 60.6747 15.3006 60.7177 15.7074C58.335 17.7877 55.0375 21.0856 56.7092 24.5193C55.5508 24.906 55.3988 26.3919 56.6404 26.7757L56.6432 34.0034L50.5157 34.0178C50.5042 33.3974 50.5988 30.0707 50.4211 29.7735C50.2949 29.6754 50.1601 29.6696 50.0082 29.6639C52.1673 20.6097 43.5423 13.956 36.308 10.5952L36.3137 7.51947C36.9704 6.89336 37.584 6.15181 37.6241 5.19971C37.693 3.59259 35.9697 2.68081 35.3245 1.37668C35.4622 0.938111 35.4593 0.369694 34.8428 0.464904C34.6966 0.614936 34.6421 0.744781 34.5876 0.943865C34.6278 1.11987 34.665 1.29587 34.6994 1.47187C33.9396 2.85682 32.05 3.83204 32.5346 5.67287C32.721 6.38553 33.197 7.03181 33.7389 7.51946L33.7446 10.6067C26.5619 13.9421 17.7623 20.6588 20.2133 29.6961C19.9982 29.8057 19.7832 29.9326 19.7057 30.1779C19.5882 30.5443 19.657 33.4037 19.657 34.0327L13.3718 34.0385C13.3804 31.6264 13.3488 29.2113 13.3775 26.8021C14.3639 26.3087 14.3036 25.0132 13.346 24.5256C14.7481 20.8844 11.9123 17.8664 9.38903 15.6391C9.4005 15.0043 9.51806 14.2513 9.05355 13.7435C8.88724 13.5646 8.68366 13.4405 8.47721 13.3164C9.51522 12.7596 9.6643 11.5679 8.51735 11.0429C8.46 10.1224 8.57756 9.1905 8.50588 8.27584C8.47721 7.88344 8.13886 7.64396 7.85499 7.99886C7.70302 8.24987 7.80338 10.5726 7.78331 11.0486C6.74816 11.643 6.85716 12.7711 7.87793 13.3078C7.4765 13.579 7.11519 13.8589 7.01198 14.3638C6.92883 14.7707 6.98044 15.2467 6.98618 15.6622C4.45718 17.8464 1.6902 20.9365 2.9805 24.5229C1.77051 24.7797 1.67303 26.4012 2.86008 26.7763L2.86868 38.11C2.23787 38.1071 1.60414 38.0926 0.973381 38.1042C0.749726 38.2427 0.485933 38.4879 0.646505 38.7707C1.34614 39.971 2.11173 41.1569 2.83432 42.3455L2.86012 64.5017C20.9506 64.5132 49.3485 64.519 67.2239 64.5161C67.2755 63.0244 67.1408 43.1821 67.2554 42.2706C67.3501 41.783 68.9299 39.5555 69.2827 38.9438C69.3945 38.7477 69.4977 38.4591 69.3027 38.2745L69.2997 38.2821ZM61.5409 12.3663C61.3832 12.0777 61.6412 11.8152 61.8907 11.7084C62.3839 11.8613 62.447 12.424 61.9165 12.5798C61.776 12.5682 61.6126 12.4903 61.5409 12.3634V12.3663ZM61.4262 14.3917C61.5466 14.2244 61.7015 14.0801 61.8477 13.9359C62.4756 14.1119 62.3925 14.9659 62.3782 15.4853L62.0169 15.4911H61.4205C61.4176 15.1246 61.4233 14.7582 61.4262 14.3917ZM57.0506 22.0352C57.4836 19.5683 59.4477 17.7534 61.2771 16.2242C61.6757 16.2097 62.0771 16.2213 62.4785 16.2242C64.8326 18.088 67.7889 21.2763 66.3208 24.4961C64.1703 24.4961 59.637 24.499 57.4638 24.5019C57.028 23.6796 56.9015 22.9613 57.0506 22.0352ZM56.589 25.9332C56.3825 25.7081 56.5431 25.3965 56.7725 25.2638C57.9023 25.2378 60.4656 25.2811 61.6355 25.2724C63.4506 25.3099 65.2972 25.1455 67.0978 25.3099C67.4362 25.4484 67.3358 25.9736 67.0118 26.0687C65.7588 26.1178 62.88 26.0572 61.5868 26.0774L58.493 26.086C57.9023 26.0312 57.0994 26.2592 56.5919 25.9331L56.589 25.9332ZM65.4408 26.793C65.8021 26.7843 66.1634 26.793 66.5218 26.7959C66.5218 30.567 66.5763 34.3499 66.5161 38.1207C66.1548 38.1293 65.7907 38.1293 65.4294 38.1264C65.3978 34.3496 65.4064 30.5702 65.438 26.7928L65.4408 26.793ZM64.701 38.1008C63.491 38.1383 60.5376 38.0835 59.2817 38.1037L59.2789 26.7959L64.7068 26.8017C64.724 30.567 64.724 34.3352 64.701 38.1008ZM58.5391 38.1094H57.395L57.3922 30.6972V28.161C57.4237 27.7629 57.2976 27.105 57.4495 26.779C57.8194 26.7761 58.1893 26.779 58.5592 26.7876C58.5305 29.0468 58.6137 35.9689 58.542 38.1065L58.5391 38.1094ZM49.7967 34.0181C48.6813 34.0296 47.2361 34.0123 46.1064 34.0181L46.1179 30.3538C47.3423 30.3393 48.5666 30.3336 49.791 30.3422C49.8082 31.5656 49.7967 32.7947 49.7967 34.0181ZM33.189 5.29176C33.0399 4.16652 34.3846 3.14218 35.0183 2.27952C35.2391 2.43244 35.394 2.71809 35.5775 2.91718C36.1022 3.51443 36.8047 4.09441 36.8879 4.94555C36.9768 5.97269 36.1739 7.04608 35.1274 7.11529C34.1295 7.15857 33.3267 6.2324 33.1891 5.28886L33.189 5.29176ZM35.609 10.2199L35.5546 10.2516C35.4026 10.1824 35.2391 10.1391 35.0786 10.09C34.8721 10.1477 34.6743 10.2314 34.4736 10.3064C34.4391 9.46394 34.4563 8.61561 34.4621 7.77024C34.852 7.7991 35.2306 7.80487 35.6205 7.76736C35.6205 8.58104 35.6377 9.40329 35.609 10.217L35.609 10.2199ZM21.1234 22.9783C23.5033 17.0548 29.5077 13.3007 35.0644 10.8078C42.2786 14.0624 51.5686 20.4965 49.2607 29.6549C40.8765 29.6318 29.1979 29.7385 20.934 29.6376C20.5269 27.2889 20.2516 25.3067 21.1233 22.9812L21.1234 22.9783ZM45.3953 30.3618L45.3924 34.0204H40.7215L40.7157 30.3589L45.3924 30.3618L45.3953 30.3618ZM40.0476 34.0261C38.5021 34.055 36.9509 34.0261 35.4054 34.0232C35.3997 32.8028 35.3997 31.5823 35.4054 30.3618L40.0476 30.356C40.0562 31.5794 40.0562 32.8028 40.0505 34.0262L40.0476 34.0261ZM34.7087 30.3531L34.7058 34.029L30.0177 34.0405C30.0062 32.8085 30.0005 31.5765 30.0005 30.3445C31.5689 30.3272 33.1431 30.3445 34.7116 30.3502L34.7087 30.3531ZM29.3438 34.0348H24.7216L24.7188 30.3531C26.2557 30.3185 27.8012 30.3444 29.3381 30.3502L29.3438 34.0348ZM20.3775 30.3589C21.576 30.304 22.7947 30.3531 23.9932 30.356L23.9846 34.0319C22.7861 34.0694 21.5732 34.0319 20.3746 34.0319L20.3804 30.356L20.3775 30.3589ZM13.3841 34.7388C22.3445 34.7503 47.3482 34.7503 56.6522 34.7445V38.103L13.3782 38.0828C13.3753 36.9662 13.3753 35.8525 13.3839 34.7359L13.3841 34.7388ZM7.78698 12.1756C7.79272 11.9621 7.90167 11.8525 8.05078 11.7169C8.53823 11.6419 8.78195 12.2968 8.35186 12.5536C8.08806 12.62 7.76977 12.4844 7.78698 12.1756ZM7.69523 14.5099C7.81565 14.2935 7.96189 14.1377 8.14827 13.979C8.37479 14.0886 8.50956 14.2617 8.65005 14.4608C8.67873 14.7926 8.67299 15.1331 8.67586 15.4649C8.43214 15.4678 7.93037 15.4707 7.68373 15.4707C7.68373 15.1504 7.68373 14.8301 7.69233 14.5099L7.69523 14.5099ZM3.40276 22.4184C3.5576 19.7495 5.67661 17.8597 7.51744 16.1977L8.86507 16.1948C11.2593 18.1713 14.0435 21.172 12.5869 24.4986C10.4765 24.4986 5.90879 24.4957 3.76663 24.4928C3.52578 23.7686 3.35946 23.1887 3.40534 22.4154L3.40276 22.4184ZM2.80923 25.9414C2.61425 25.7134 2.78629 25.4105 2.99847 25.2662C4.50098 25.2374 7.99341 25.2778 9.55039 25.2604L11.9073 25.2576C12.3489 25.298 12.9768 25.0844 13.3037 25.4624C13.4471 25.6846 13.3381 25.976 13.1116 26.0914C11.156 26.1549 9.18328 26.0885 7.22492 26.0885H4.58692C4.01345 26.0366 3.31666 26.2472 2.80914 25.9385L2.80923 25.9414ZM12.6439 38.0853L11.5744 38.0882L11.5773 26.807C11.93 26.8012 12.2855 26.8099 12.6382 26.8099L12.6411 38.0859L12.6439 38.0853ZM10.8404 38.0997L5.28919 38.1026L5.29492 26.7978H10.8203L10.8375 38.0997L10.8404 38.0997ZM4.58098 30.2923C4.59819 32.8977 4.59819 35.5032 4.57812 38.1086H3.57453V26.7956C3.90714 26.7841 4.23976 26.7899 4.57525 26.7956C4.60679 27.9584 4.57812 29.1269 4.58099 30.2897L4.58098 30.2923ZM11.2877 63.805C9.75943 63.8079 6.68563 63.8079 5.15728 63.805L5.15441 55.7871C5.18022 54.8292 5.09133 52.9653 5.18595 52.0391C5.43255 50.3339 7.06121 49.7684 8.26548 48.8566C9.00525 49.3846 9.84536 49.8434 10.5192 50.4666C11.3307 51.2572 11.3106 52.446 11.2905 53.502L11.2963 55.6746L11.2877 63.805ZM12.925 63.8021L12.0189 63.805L12.0074 55.2213V53.2477C12.1078 51.9869 11.8411 50.6798 10.8835 49.794C10.0204 49.0352 8.948 48.6428 8.2856 47.6647C7.44549 48.7957 6.45336 48.9717 5.55585 49.8777C5.04832 50.3884 4.68703 50.9828 4.53795 51.6926C4.36591 52.7312 4.50641 54.4942 4.46913 55.5675L4.46053 63.7967L3.56302 63.7995V42.5408C6.68556 42.5235 9.81097 42.5293 12.9338 42.5582L12.9309 63.7999L12.925 63.8021ZM11.9042 41.8188L3.38273 41.8131C2.76338 40.8263 2.07526 39.8655 1.52179 38.8412C5.95188 38.8239 10.5109 38.7749 14.9327 38.8181C14.3822 39.8453 13.7342 40.8119 13.1492 41.8188C12.7363 41.8275 12.32 41.8217 11.9042 41.8188ZM23.0639 63.8132C21.5815 63.8103 18.542 63.8045 17.0482 63.8017L17.031 52.5951C17.0367 51.3659 17.4582 50.5378 18.5019 49.8656C19.0152 49.5338 19.5284 49.251 19.9643 48.8153C23.7807 51.2188 23.0238 51.565 23.0725 55.7314C23.0897 58.4234 23.0869 61.1183 23.0639 63.8106L23.0639 63.8132ZM25.8452 63.8074L23.7979 63.8103C23.7463 60.4056 23.7807 56.9145 23.7865 53.5012C23.8295 52.448 23.7979 51.3314 23.1384 50.4543C22.4015 49.381 21.1399 48.9914 20.2883 48.0508L19.993 47.7017C19.3449 48.6972 18.1951 49.052 17.3665 49.8599C16.8676 50.3678 16.5206 51.0256 16.3859 51.7267C16.2167 54.1878 16.3973 61.2307 16.3486 63.799L13.6504 63.7961C13.5644 56.6867 13.6848 49.5685 13.6389 42.4591C14.33 41.2213 15.087 40.0181 15.8009 38.7948C17.7822 38.7804 23.7689 38.7948 25.8367 38.8006C25.897 47.1361 25.8998 55.4686 25.8482 63.8049L25.8452 63.8074ZM35.0406 63.8045L29.3689 63.8017C29.4091 60.7923 29.2743 53.4061 29.3833 50.518C29.6528 48.3627 30.9345 46.8248 32.827 45.8727C33.5639 45.5005 34.3552 45.2148 35.0119 44.7013C36.3424 45.6274 37.8649 45.9621 39.0635 47.1566C40.4857 48.5387 40.781 50.5959 40.6835 52.4945C40.6806 54.1882 40.6864 61.9697 40.6864 63.8163L35.0434 63.8076L35.0406 63.8045ZM41.4004 63.8276C41.3947 61.8483 41.3689 54.0208 41.3775 52.2089C41.6327 49.2572 40.2305 46.5017 37.5352 45.212C36.6865 44.7763 35.8205 44.4762 35.0435 43.8963C35.0148 43.8819 34.9861 43.8819 34.9546 43.8761C33.4922 44.9697 31.8808 45.2553 30.5446 46.6027C29.0163 48.08 28.5117 50.2382 28.6608 52.307C28.6751 56.1156 28.6981 60.0051 28.6579 63.8076H27.9611C27.9583 61.7474 27.9554 54.3176 27.9468 52.4104C27.6572 49.1096 29.2658 45.9762 32.2793 44.5454C33.1998 44.0838 34.1833 43.7953 34.9919 43.1316C36.6147 44.2309 38.5875 44.6319 39.9695 46.1092C41.8648 47.8433 42.2434 50.4573 42.1058 52.904C42.1029 54.9267 42.1115 61.6982 42.1144 63.8248L41.4033 63.8277L41.4004 63.8276ZM42.8026 63.819C42.7768 60.6192 42.7968 55.7457 42.7968 52.5348C43.1065 48.7811 41.4464 45.512 38.0113 43.8846C36.9216 43.3538 35.8034 43.0479 34.9948 42.0813C33.9568 43.2586 33.0794 43.3278 31.769 43.9972C29.7275 45.0821 28.0644 46.9345 27.5167 49.2225C27.078 51.0604 27.3217 53.3773 27.2701 55.2672C27.2787 58.1121 27.3074 60.9599 27.2759 63.8051H26.5619L26.5246 38.7956C32.2049 38.7812 37.8905 38.7956 43.5713 38.8071L43.577 63.8137L42.8 63.8194L42.8026 63.819ZM53.0249 63.8017H46.8744C46.8543 60.0652 46.8543 56.3289 46.8715 52.5951C46.8916 51.1784 47.554 50.4022 48.7038 49.6665C49.1109 49.4068 49.5496 49.1645 49.8909 48.8154C50.5991 49.4069 51.5109 49.7214 52.1676 50.3821C52.9934 51.138 53.0794 52.2893 53.0192 53.3424V55.5122L53.0221 63.8048L53.0249 63.8017ZM56.4857 63.8017H53.7273C53.7015 61.9262 53.7359 57.2723 53.7273 55.3273L53.7302 53.1374C53.7503 52.3987 53.7761 51.6341 53.4205 50.9648C52.4341 49.046 51.0664 49.2018 49.9051 47.7909C49.2256 48.7084 48.1216 49.046 47.3217 49.8366C46.3238 50.7656 46.0457 52.139 46.1604 53.4518C46.1661 54.8195 46.1633 62.2778 46.1633 63.8016H44.2823L44.2593 38.8032H53.9854C54.5904 39.8015 55.8119 41.4202 56.48 42.404C56.4742 46.4608 56.4628 59.5397 56.4828 63.7986L56.4857 63.8017ZM61.928 63.8045H58.8685C58.8341 60.4951 58.9058 57.0068 58.8714 53.686C58.6362 50.5035 59.6541 50.4487 61.8764 48.8243C62.5502 49.4331 63.4305 49.7533 64.0728 50.391C64.8642 51.121 65.0162 52.2232 64.933 53.2474V55.397L64.9445 63.8079H61.9309L61.928 63.8045ZM65.6355 63.8074L65.6298 55.8582L65.6384 53.4317C65.7588 52.1015 65.4921 50.7483 64.4914 49.8019C63.5882 48.9334 62.7165 48.8325 61.885 47.7534C61.171 48.7344 60.0986 48.9767 59.2642 49.8106C58.1947 50.7628 58.0685 52.2112 58.166 53.5557C58.1947 55.1282 58.1689 62.0936 58.166 63.8014H57.2169C57.214 57.6643 57.1424 48.5759 57.1997 42.5368C60.2993 42.5021 63.4018 42.5425 66.5015 42.5425L66.5187 63.8071H65.6327L65.6355 63.8074ZM67.3158 40.6933C67.0778 41.0741 66.8455 41.4608 66.5646 41.8099C63.3674 41.7983 60.1589 41.7608 56.9618 41.8214C56.4944 41.1318 55.3418 39.5478 54.86 38.8322C58.2521 38.8005 65.0074 38.8495 68.4831 38.8409C68.1849 39.4843 67.7003 40.0931 67.319 40.6932L67.3158 40.6933Z" fill="#FAFAFA"/>
</g>
<defs>
<clipPath id="clip0_106_3310">
<rect width="69" height="65" fill="white" transform="translate(0.5)"/>
</clipPath>
</defs>
</svg>
