<svg width="29" height="29" viewBox="0 0 29 29" fill="none" xmlns="http://www.w3.org/2000/svg">
<path d="M13.1497 0.263597C5.99934 0.263597 0.181641 6.08134 0.181641 13.2318C0.181641 20.3822 5.99934 26.2 13.1497 26.2C16.4298 26.2 19.431 24.9708 21.7202 22.9537L27.7851 28.9186L29.0007 27.6844L22.9411 21.7242C24.9192 19.4468 26.1231 16.4778 26.1231 13.2315C26.118 6.08108 20.3001 0.263597 13.1497 0.263597ZM13.1497 24.4686C6.95633 24.4686 1.91297 19.427 1.91297 13.2318C1.91297 7.03834 6.9546 1.99494 13.1497 1.99494C19.3431 1.99494 24.3865 7.03661 24.3865 13.2318C24.3865 19.4252 19.3448 24.4686 13.1497 24.4686Z" fill="black"/>
</svg>
