<svg width="23" height="24" viewBox="0 0 23 24" fill="none" xmlns="http://www.w3.org/2000/svg">
<path d="M10.3147 0C4.62815 0 0 4.62815 0 10.3147C0 16.0012 4.62815 20.6293 10.3147 20.6293C16.0012 20.6293 20.6293 16.0012 20.6293 10.3147C20.6293 4.62465 16.0012 0 10.3147 0ZM10.3147 19.2286C5.39659 19.2286 1.39718 15.2292 1.39718 10.3112C1.39718 5.3931 5.39659 1.39368 10.3147 1.39368C15.2327 1.39368 19.2321 5.3931 19.2321 10.3112C19.2321 15.2292 15.2292 19.2286 10.3147 19.2286Z" fill="black"/>
<path d="M19.8678 19.0575C19.5988 18.7815 19.1552 18.778 18.8793 19.047C18.6033 19.316 18.5999 19.7596 18.8688 20.0355L21.7086 22.9416C21.8448 23.0813 22.0264 23.1512 22.2081 23.1512C22.3827 23.1512 22.5608 23.0848 22.6971 22.9521C22.973 22.6832 22.9765 22.2395 22.7076 21.9636L19.8678 19.0575Z" fill="black"/>
</svg>
