<svg width="37" height="31" viewBox="0 0 37 31" fill="none" xmlns="http://www.w3.org/2000/svg">
<g clip-path="url(#clip0_107_5629)">
<path d="M18.5 10.2462C13.2347 10.2462 8.95297 5.9438 8.95297 0.657555C8.95297 0.304735 9.23802 0.0184326 9.58932 0.0184326H27.411C27.7623 0.0184326 28.0473 0.304724 28.0473 0.657555C28.0473 5.94581 23.7633 10.2462 18.5 10.2462Z" fill="white"/>
<path d="M10.2495 1.29651C10.5747 5.58079 14.1519 8.96774 18.5 8.96774C22.8481 8.96774 26.4252 5.58064 26.7505 1.29651H10.2495Z" fill="white"/>
<path d="M18.5 15.361C11.1288 15.361 5.13272 9.33879 5.13272 1.93543V0.657188C5.13272 0.304368 5.41777 0.0180664 5.76907 0.0180664H31.2307C31.582 0.0180664 31.8671 0.304357 31.8671 0.657188V1.93543C31.8671 9.33879 25.8712 15.361 18.5 15.361ZM6.40562 1.29647V1.93559C6.40562 8.63339 11.8318 14.0827 18.5 14.0827C25.1682 14.0827 30.5944 8.63288 30.5944 1.93559V1.29647H6.40562Z" fill="white"/>
<path d="M0.99593 20.1553C0.83333 20.1553 0.670736 20.0928 0.546277 19.9678C0.297359 19.7178 0.297359 19.3146 0.546277 19.0646L6.59269 12.9918C6.84161 12.7418 7.24307 12.7418 7.492 12.9918C7.74093 13.2418 7.74092 13.645 7.492 13.895L1.44558 19.9678C1.32112 20.0928 1.15853 20.1553 0.99593 20.1553Z" fill="white"/>
<path d="M36.0041 20.1553C35.8415 20.1553 35.6789 20.0928 35.5544 19.9678L29.508 13.8951C29.2591 13.6451 29.2591 13.2418 29.508 12.9918C29.7569 12.7418 30.1584 12.7418 30.4073 12.9918L36.4537 19.0646C36.7026 19.3146 36.7026 19.7178 36.4537 19.9678C36.3293 20.0928 36.1667 20.1553 36.0041 20.1553Z" fill="white"/>
<path d="M7.04181 28.1471C6.94747 28.1471 6.8491 28.1249 6.75676 28.0805C6.4416 27.9233 6.31514 27.5382 6.47171 27.2236L11.5645 16.996C11.721 16.6795 12.1024 16.5525 12.4176 16.7097C12.7328 16.867 12.8592 17.2521 12.7027 17.5666L7.60992 27.7942C7.49751 28.018 7.27268 28.147 7.03981 28.147L7.04181 28.1471Z" fill="white"/>
<path d="M29.9582 28.1471C29.7253 28.1471 29.5005 28.018 29.3881 27.7943L24.2953 17.5666C24.1387 17.2501 24.2652 16.867 24.5804 16.7098C24.8955 16.5505 25.2769 16.6795 25.4335 16.9961L30.5263 27.2237C30.6828 27.5402 30.5564 27.9233 30.2412 28.0805C30.1489 28.1269 30.0525 28.1471 29.9562 28.1471L29.9582 28.1471Z" fill="white"/>
<path d="M18.5 31.982C18.1487 31.982 17.8636 31.6957 17.8636 31.3429V17.9173C17.8636 17.5645 18.1487 17.2782 18.5 17.2782C18.8513 17.2782 19.1363 17.5645 19.1363 17.9173V31.3429C19.1363 31.6957 18.8513 31.982 18.5 31.982Z" fill="white"/>
</g>
<defs>
<clipPath id="clip0_107_5629">
<rect width="37" height="32" fill="white"/>
</clipPath>
</defs>
</svg>
