<svg width="43" height="40" viewBox="0 0 43 40" fill="none" xmlns="http://www.w3.org/2000/svg">
<g clip-path="url(#clip0_107_5661)">
<path d="M31.3108 27.5695H11.6892C11.3024 27.5695 10.9886 27.2613 10.9886 26.8815C10.9886 21.1893 15.705 16.5604 21.4998 16.5604C27.2969 16.5604 32.0111 21.1915 32.0111 26.8815C32.0111 27.2613 31.6976 27.5695 31.3108 27.5695Z" fill="white"/>
<path d="M12.4162 26.1934H30.5832C30.2229 21.5818 26.2867 17.9362 21.4994 17.9362C16.7122 17.9362 12.7744 21.582 12.4162 26.1934Z" fill="white"/>
<path d="M35.5163 27.5694H7.48312C7.09635 27.5694 6.7825 27.2612 6.7825 26.8814V25.5056C6.7825 17.5367 13.3841 11.0544 21.4998 11.0544C29.6155 11.0544 36.2171 17.5367 36.2171 25.5056V26.8814C36.2171 27.2612 35.9031 27.5694 35.5163 27.5694ZM8.18583 26.1935H34.8153V25.5056C34.8153 18.2961 28.8411 12.4306 21.4994 12.4306C14.1577 12.4306 8.18357 18.2967 8.18357 25.5056V26.1935H8.18583Z" fill="white"/>
<path d="M41.1216 27.5695H1.87899C1.49222 27.5695 1.17838 27.2613 1.17838 26.8815C1.17838 26.5018 1.49221 26.1936 1.87899 26.1936H41.1238C41.5106 26.1936 41.8245 26.5018 41.8245 26.8815C41.8245 27.2613 41.5106 27.5695 41.1238 27.5695H41.1216Z" fill="white"/>
<path d="M36.2173 31.6972H6.78326C6.39649 31.6972 6.08264 31.389 6.08264 31.0092C6.08264 30.6295 6.39648 30.3213 6.78326 30.3213H36.2173C36.6041 30.3213 36.9179 30.6295 36.9179 31.0092C36.9179 31.389 36.6041 31.6972 36.2173 31.6972Z" fill="white"/>
<path d="M32.0112 35.8267H10.9865C10.5997 35.8267 10.2859 35.5185 10.2859 35.1388C10.2859 34.759 10.5997 34.4508 10.9865 34.4508H32.0112C32.398 34.4508 32.7119 34.759 32.7119 35.1388C32.7119 35.5185 32.398 35.8267 32.0112 35.8267Z" fill="white"/>
<path d="M32.0112 35.8267H10.9865C10.5997 35.8267 10.2859 35.5185 10.2859 35.1388C10.2859 34.759 10.5997 34.4508 10.9865 34.4508H32.0112C32.398 34.4508 32.7119 34.759 32.7119 35.1388C32.7119 35.5185 32.398 35.8267 32.0112 35.8267Z" fill="white"/>
<path d="M28.5084 39.9567H14.4921C14.1054 39.9567 13.7915 39.6485 13.7915 39.2688C13.7915 38.889 14.1053 38.5808 14.4921 38.5808H28.5084C28.8952 38.5808 29.209 38.889 29.209 39.2688C29.209 39.6485 28.8952 39.9567 28.5084 39.9567Z" fill="white"/>
<path d="M36.2173 17.2483C35.9831 17.2483 35.7554 17.1333 35.6228 16.925C35.4173 16.6038 35.5167 16.1784 35.846 15.9767L41.4531 12.537C41.7824 12.3352 42.2134 12.435 42.4189 12.7562C42.6244 13.0774 42.525 13.5027 42.1957 13.7045L36.5886 17.1442C36.4737 17.2158 36.3433 17.2483 36.2173 17.2483Z" fill="white"/>
<path d="M6.78269 17.2484C6.65671 17.2484 6.52852 17.2158 6.41139 17.1442L0.804299 13.7045C0.474993 13.5027 0.375539 13.0795 0.581079 12.7562C0.786619 12.4329 1.21759 12.3352 1.54688 12.537L7.15397 15.9767C7.48327 16.1785 7.58273 16.6017 7.37719 16.925C7.24458 17.1334 7.01697 17.2484 6.78269 17.2484Z" fill="white"/>
<path d="M21.5 8.99111C21.1132 8.99111 20.7994 8.68295 20.7994 8.30316V0.73372C20.7994 0.353948 21.1132 0.0457764 21.5 0.0457764C21.8868 0.0457764 22.2006 0.353937 22.2006 0.73372V8.30316C22.2006 8.68294 21.8868 8.99111 21.5 8.99111Z" fill="white"/>
<path d="M29.9093 11.0544C29.7634 11.0544 29.6154 11.0089 29.4894 10.9177C29.18 10.6898 29.1159 10.258 29.3502 9.95415L33.5538 4.44849C33.7859 4.14467 34.2257 4.08173 34.5351 4.31177C34.8445 4.53964 34.9086 4.97149 34.6743 5.27532L30.4707 10.781C30.3337 10.9611 30.1237 11.0566 29.9093 11.0566L29.9093 11.0544Z" fill="white"/>
<path d="M13.0907 11.0544C12.8763 11.0544 12.6663 10.959 12.5293 10.7788L8.32564 5.27317C8.09358 4.96935 8.15547 4.53751 8.46488 4.30962C8.77651 4.08175 9.2141 4.14252 9.44619 4.44633L13.6498 9.952C13.8819 10.2558 13.82 10.6877 13.5106 10.9156C13.3846 11.0089 13.2365 11.0523 13.0907 11.0523L13.0907 11.0544Z" fill="white"/>
</g>
<defs>
<clipPath id="clip0_107_5661">
<rect width="43" height="40" fill="white"/>
</clipPath>
</defs>
</svg>
