<svg width="34" height="35" viewBox="0 0 34 35" fill="none" xmlns="http://www.w3.org/2000/svg">
<g clip-path="url(#clip0_101_4381)">
<path d="M20.9579 10.1999C20.8103 10.2585 20.6706 10.3353 20.5419 10.4285C19.599 11.3014 18.6664 12.1881 17.727 13.068L8.26297 21.9459L-0.0292969 18.8908L25.9707 4.25928C24.6152 11.8798 23.2736 19.3861 21.9216 26.9755C19.9352 26.2827 17.9974 25.5207 15.9971 24.814L11.3344 30.2593C11.3344 28.465 11.3344 26.7954 11.3344 25.1292C11.3344 24.4365 11.3587 23.7437 11.3691 23.0786C11.7643 22.5417 12.1526 22.0048 12.5478 21.4714C15.3211 17.7766 18.0863 14.0679 20.8435 10.3453C20.8782 10.2968 20.9059 10.238 20.9406 10.186L20.9648 10.1618C20.9683 10.1271 20.9648 10.1687 20.9579 10.1999Z" fill="#B8930C"/>
</g>
<defs>
<clipPath id="clip0_101_4381">
<rect width="34" height="34" fill="white" transform="translate(0 0.204346)"/>
</clipPath>
</defs>
</svg>
