<svg width="51" height="51" viewBox="0 0 51 51" fill="none" xmlns="http://www.w3.org/2000/svg">
<path fill-rule="evenodd" clip-rule="evenodd" d="M42.4682 14.5414C43.5937 15.7115 43.961 18.3687 43.961 18.3687C43.961 18.3687 44.3365 21.4898 44.3365 24.6098V27.5357C44.3365 30.6568 43.961 33.7767 43.961 33.7767C43.961 33.7767 43.5937 36.4339 42.4682 37.6041C41.1815 38.9883 39.7547 39.1313 38.9483 39.2121C38.8596 39.221 38.7784 39.2292 38.7057 39.2381C33.4505 39.6286 25.5594 39.6406 25.5594 39.6406C25.5594 39.6406 15.7953 39.549 12.7909 39.2526C12.6486 39.2253 12.476 39.204 12.2806 39.18C11.329 39.0628 9.83528 38.8788 8.64938 37.6041C7.52392 36.4339 7.15777 33.7767 7.15777 33.7767C7.15777 33.7767 6.78223 30.6568 6.78223 27.5357V24.6098C6.78223 21.4898 7.15777 18.3687 7.15777 18.3687C7.15777 18.3687 7.52392 15.7115 8.64938 14.5414C9.93897 13.1552 11.3671 13.0137 12.1736 12.9338C12.261 12.9252 12.3412 12.9172 12.413 12.9085C17.6683 12.5181 25.5512 12.5181 25.5512 12.5181H25.5676C25.5676 12.5181 33.4505 12.5181 38.7057 12.9085C38.7776 12.9172 38.8578 12.9252 38.9453 12.9339C39.7512 13.0138 41.1799 13.1554 42.4682 14.5414ZM21.68 20.2461L21.6812 31.0809L31.8267 25.6822L21.68 20.2461Z" fill="#B8930C"/>
</svg>
