<svg width="35" height="35" viewBox="0 0 35 35" fill="none" xmlns="http://www.w3.org/2000/svg">
<path fill-rule="evenodd" clip-rule="evenodd" d="M29.2257 9.99255C29.9991 10.7966 30.2515 12.6226 30.2515 12.6226C30.2515 12.6226 30.5096 14.7674 30.5096 16.9113V18.9219C30.5096 21.0667 30.2515 23.2107 30.2515 23.2107C30.2515 23.2107 29.9991 25.0366 29.2257 25.8407C28.3415 26.7919 27.3611 26.8902 26.8069 26.9457C26.746 26.9519 26.6902 26.9575 26.6402 26.9636C23.029 27.2319 17.6064 27.2402 17.6064 27.2402C17.6064 27.2402 10.8967 27.1773 8.83216 26.9735C8.73435 26.9548 8.61577 26.9402 8.48149 26.9236C7.82754 26.8431 6.80112 26.7167 5.98619 25.8407C5.2128 25.0366 4.96119 23.2107 4.96119 23.2107C4.96119 23.2107 4.70312 21.0667 4.70312 18.9219V16.9113C4.70312 14.7674 4.96119 12.6226 4.96119 12.6226C4.96119 12.6226 5.2128 10.7966 5.98619 9.99255C6.87237 9.04 7.85373 8.94278 8.40795 8.88788C8.46804 8.88193 8.5231 8.87647 8.57248 8.87048C12.1838 8.60217 17.6007 8.60217 17.6007 8.60217H17.612C17.612 8.60217 23.029 8.60217 26.6402 8.87048C26.6896 8.87648 26.7447 8.88194 26.8049 8.88791C27.3587 8.94281 28.3404 9.04016 29.2257 9.99255ZM14.9412 13.9126L14.942 21.3581L21.9137 17.6482L14.9412 13.9126Z" fill="#B8930C"/>
</svg>
